<?xml version="1.0" encoding="UTF-8"?>
<svg id="b" data-name="Layer 2" xmlns="http://www.w3.org/2000/svg" width="242.201" height="115.817" viewBox="0 0 242.201 115.817">
  <g id="c" data-name="Layer 1">
    <g>
      <g>
        <path d="m22.927,60.551v-6.896h2.357c1.73,0,2.809.78,2.809,2.109,0,1.339-1.078,2.118-2.809,2.118h-1.229v2.669h-1.129Zm1.129-5.967v2.369h1.34c.969,0,1.518-.43,1.518-1.189s-.549-1.18-1.518-1.18h-1.34Z" stroke-width="0"/>
        <path d="m32.576,60.65c-1.828,0-2.818-1.279-2.928-2.528h1.168c.07.899.801,1.6,1.77,1.6.879,0,1.529-.38,1.529-1.02,0-.56-.42-.86-1.309-1.069l-1-.23c-1.35-.319-2.02-.949-2.02-1.909,0-1.159,1.141-1.938,2.529-1.938,1.76,0,2.658.959,2.779,2.148h-1.17c-.09-.819-.779-1.219-1.59-1.219-.789,0-1.359.34-1.359.93,0,.47.35.689,1.369.929l1,.24c1.299.3,1.949.979,1.949,2.068,0,1.149-1.119,1.999-2.719,1.999Z" stroke-width="0"/>
        <path d="m37.406,60.551v-6.896h4.107v.93h-2.979v1.959h2.889v.93h-2.889v2.148h3.059v.93h-4.188Z" stroke-width="0"/>
        <path d="m43.775,60.551v-6.896h2.189c1.729,0,2.768.74,2.768,2.049,0,.93-.529,1.579-1.469,1.869l1.58,2.979h-1.24l-1.488-2.799h-1.211v2.799h-1.129Zm1.129-5.967v2.239h1.16c.969,0,1.488-.391,1.488-1.12s-.52-1.119-1.488-1.119h-1.16Z" stroke-width="0"/>
        <path d="m52.365,60.551l-2.279-6.896h1.16l2.189,6.677,2.197-6.677h1.15l-2.27,6.896h-2.148Z" stroke-width="0"/>
        <path d="m57.421,60.551l2.279-6.896h2.148l2.268,6.896h-1.148l-.641-1.938h-3.107l-.641,1.938h-1.158Zm2.098-2.878h2.5l-1.25-3.799-1.25,3.799Z" stroke-width="0"/>
        <path d="m66.808,60.551v-5.967h-2.238v-.93h5.598v.93h-2.229v5.967h-1.131Z" stroke-width="0"/>
        <path d="m74.621,60.65c-1.939,0-3.27-1.579-3.27-3.548s1.33-3.548,3.27-3.548,3.268,1.579,3.268,3.548-1.33,3.548-3.268,3.548Zm0-.929c1.229,0,2.088-1.04,2.088-2.619,0-1.589-.859-2.618-2.088-2.618-1.221,0-2.08,1.029-2.08,2.618,0,1.579.859,2.619,2.08,2.619Z" stroke-width="0"/>
        <path d="m80.025,60.551v-6.896h2.189c1.729,0,2.768.74,2.768,2.049,0,.93-.529,1.579-1.469,1.869l1.58,2.979h-1.24l-1.488-2.799h-1.211v2.799h-1.129Zm1.129-5.967v2.239h1.16c.969,0,1.488-.391,1.488-1.12s-.52-1.119-1.488-1.119h-1.16Z" stroke-width="0"/>
        <path d="m87.164,60.551v-6.896h1.129v6.896h-1.129Z" stroke-width="0"/>
        <path d="m90.08,60.551v-.93h.93c.65,0,.789-.239.789-.859v-5.107h1.131v5.258c0,1.319-.51,1.639-1.699,1.639h-1.15Z" stroke-width="0"/>
      </g>
      <g>
        <path d="m100.958,60.551v-6.896h1.129v3.158l2.84-3.158h1.449l-2.969,3.299,3.268,3.598h-1.449l-3.139-3.458v3.458h-1.129Z" stroke-width="0"/>
        <path d="m108.367,60.551v-6.896h2.188c1.73,0,2.77.74,2.77,2.049,0,.93-.529,1.579-1.471,1.869l1.58,2.979h-1.24l-1.488-2.799h-1.209v2.799h-1.129Zm1.129-5.967v2.239h1.158c.971,0,1.49-.391,1.49-1.12s-.52-1.119-1.49-1.119h-1.158Z" stroke-width="0"/>
        <path d="m114.962,60.551l2.279-6.896h2.148l2.27,6.896h-1.15l-.639-1.938h-3.109l-.639,1.938h-1.16Zm2.1-2.878h2.498l-1.248-3.799-1.25,3.799Z" stroke-width="0"/>
        <path d="m123.06,60.551v-.93h.93c.65,0,.789-.239.789-.859v-5.107h1.131v5.258c0,1.319-.51,1.639-1.699,1.639h-1.15Z" stroke-width="0"/>
        <path d="m131.263,60.65c-1.939,0-3.27-1.579-3.27-3.548s1.33-3.548,3.27-3.548,3.268,1.579,3.268,3.548-1.33,3.548-3.268,3.548Zm0-.929c1.229,0,2.088-1.04,2.088-2.619,0-1.589-.859-2.618-2.088-2.618-1.221,0-2.08,1.029-2.08,2.618,0,1.579.859,2.619,2.08,2.619Z" stroke-width="0"/>
        <path d="m136.669,60.551v-6.896h2.229c1.729,0,2.537.62,2.537,1.859,0,.819-.629,1.299-1.338,1.439v.029c1.119.09,1.668.68,1.668,1.59,0,1.249-.869,1.979-2.568,1.979h-2.527Zm1.129-5.967v1.929h1.119c.93,0,1.34-.35,1.34-.969,0-.63-.34-.96-1.27-.96h-1.189Zm0,2.858v2.179h1.418c1,0,1.371-.409,1.371-1.089,0-.69-.461-1.09-1.461-1.09h-1.328Z" stroke-width="0"/>
        <path d="m143.892,60.551v-6.896h2.189c1.729,0,2.768.74,2.768,2.049,0,.93-.529,1.579-1.469,1.869l1.58,2.979h-1.24l-1.488-2.799h-1.211v2.799h-1.129Zm1.129-5.967v2.239h1.16c.969,0,1.488-.391,1.488-1.12s-.52-1.119-1.488-1.119h-1.16Z" stroke-width="0"/>
        <path d="m150.49,60.551l2.279-6.896h2.148l2.268,6.896h-1.148l-.641-1.938h-3.107l-.641,1.938h-1.158Zm2.098-2.878h2.5l-1.25-3.799-1.25,3.799Z" stroke-width="0"/>
        <path d="m163.705,59.621v.93h-4.998v-.93l3.518-5.037h-3.428v-.93h4.809v.93l-3.52,5.037h3.619Z" stroke-width="0"/>
        <path d="m165.212,60.551l2.279-6.896h2.148l2.27,6.896h-1.15l-.639-1.938h-3.109l-.639,1.938h-1.16Zm2.1-2.878h2.498l-1.248-3.799-1.25,3.799Z" stroke-width="0"/>
      </g>
      <circle cx="57.908" cy="57.908" r="38.733" fill="none" stroke="#232323" stroke-linecap="square" stroke-linejoin="bevel" stroke-width="1.1"/>
      <rect width="242.201" height="115.817" fill="none" stroke-width="0"/>
    </g>
  </g>
</svg>