<?xml version="1.0" encoding="UTF-8"?>
<svg id="b" data-name="Layer 2" xmlns="http://www.w3.org/2000/svg" width="100.214" height="61.613" viewBox="0 0 100.214 61.613">
  <g id="c" data-name="Layer 1">
    <g>
      <g>
        <path d="m13.595,32.127v-3.453h1.181c.866,0,1.406.39,1.406,1.056,0,.671-.54,1.061-1.406,1.061h-.615v1.336h-.565Zm.565-2.988v1.186h.67c.485,0,.761-.215.761-.596s-.275-.59-.761-.59h-.67Z" fill="#fff" stroke-width="0"/>
        <path d="m18.359,32.177c-.916,0-1.411-.641-1.466-1.266h.585c.035.451.4.801.887.801.439,0,.766-.19.766-.51,0-.28-.211-.431-.656-.536l-.5-.115c-.676-.16-1.012-.475-1.012-.956,0-.581.571-.971,1.267-.971.881,0,1.331.48,1.392,1.076h-.586c-.045-.411-.391-.611-.796-.611-.396,0-.681.17-.681.466,0,.235.176.345.686.465l.501.12c.65.15.976.49.976,1.036,0,.576-.561,1.001-1.361,1.001Z" fill="#fff" stroke-width="0"/>
        <path d="m20.71,32.127v-3.453h2.058v.465h-1.491v.981h1.446v.465h-1.446v1.076h1.531v.465h-2.098Z" fill="#fff" stroke-width="0"/>
        <path d="m23.837,32.127v-3.453h1.097c.866,0,1.386.37,1.386,1.026,0,.465-.265.791-.735.936l.791,1.491h-.621l-.745-1.401h-.605v1.401h-.566Zm.566-2.988v1.121h.58c.485,0,.746-.195.746-.561s-.261-.561-.746-.561h-.58Z" fill="#fff" stroke-width="0"/>
        <path d="m28.075,32.127l-1.141-3.453h.58l1.097,3.343,1.101-3.343h.575l-1.136,3.453h-1.076Z" fill="#fff" stroke-width="0"/>
        <path d="m30.552,32.127l1.141-3.453h1.076l1.136,3.453h-.575l-.32-.971h-1.557l-.32.971h-.58Zm1.051-1.441h1.251l-.626-1.902-.625,1.902Z" fill="#fff" stroke-width="0"/>
        <path d="m35.207,32.127v-2.988h-1.121v-.465h2.803v.465h-1.116v2.988h-.565Z" fill="#fff" stroke-width="0"/>
        <path d="m39.062,32.177c-.971,0-1.637-.791-1.637-1.776s.666-1.777,1.637-1.777,1.637.791,1.637,1.777-.666,1.776-1.637,1.776Zm0-.465c.616,0,1.046-.521,1.046-1.311,0-.796-.43-1.312-1.046-1.312-.61,0-1.041.516-1.041,1.312,0,.791.431,1.311,1.041,1.311Z" fill="#fff" stroke-width="0"/>
        <path d="m41.703,32.127v-3.453h1.097c.866,0,1.386.37,1.386,1.026,0,.465-.265.791-.735.936l.791,1.491h-.621l-.745-1.401h-.605v1.401h-.566Zm.566-2.988v1.121h.58c.485,0,.746-.195.746-.561s-.261-.561-.746-.561h-.58Z" fill="#fff" stroke-width="0"/>
        <path d="m45.214,32.127v-3.453h.565v3.453h-.565Z" fill="#fff" stroke-width="0"/>
        <path d="m46.613,32.127v-.465h.465c.325,0,.396-.12.396-.431v-2.557h.565v2.632c0,.661-.255.821-.851.821h-.575Z" fill="#fff" stroke-width="0"/>
      </g>
      <g>
        <path d="m52.626,32.127v-3.453h.565v1.581l1.421-1.581h.726l-1.486,1.651,1.637,1.802h-.726l-1.571-1.731v1.731h-.565Z" fill="#fff" stroke-width="0"/>
        <path d="m56.267,32.127v-3.453h1.096c.865,0,1.387.37,1.387,1.026,0,.465-.266.791-.736.936l.791,1.491h-.621l-.745-1.401h-.605v1.401h-.565Zm.565-2.988v1.121h.58c.485,0,.746-.195.746-.561s-.261-.561-.746-.561h-.58Z" fill="#fff" stroke-width="0"/>
        <path d="m59.498,32.127l1.141-3.453h1.076l1.136,3.453h-.575l-.32-.971h-1.557l-.32.971h-.58Zm1.051-1.441h1.251l-.626-1.902-.625,1.902Z" fill="#fff" stroke-width="0"/>
        <path d="m63.474,32.127v-.465h.465c.325,0,.396-.12.396-.431v-2.557h.565v2.632c0,.661-.255.821-.851.821h-.575Z" fill="#fff" stroke-width="0"/>
        <path d="m67.518,32.177c-.971,0-1.637-.791-1.637-1.776s.666-1.777,1.637-1.777,1.637.791,1.637,1.777-.665,1.776-1.637,1.776Zm0-.465c.616,0,1.046-.521,1.046-1.311,0-.796-.43-1.312-1.046-1.312-.61,0-1.041.516-1.041,1.312,0,.791.431,1.311,1.041,1.311Z" fill="#fff" stroke-width="0"/>
        <path d="m70.154,32.127v-3.453h1.116c.866,0,1.271.31,1.271.931,0,.41-.315.65-.671.721v.015c.561.045.836.34.836.795,0,.626-.436.991-1.286.991h-1.267Zm.566-2.988v.966h.561c.465,0,.67-.175.67-.485,0-.315-.17-.48-.635-.48h-.596Zm0,1.431v1.091h.71c.501,0,.687-.206.687-.545,0-.346-.23-.546-.731-.546h-.665Z" fill="#fff" stroke-width="0"/>
        <path d="m73.708,32.127v-3.453h1.096c.865,0,1.387.37,1.387,1.026,0,.465-.266.791-.736.936l.791,1.491h-.621l-.745-1.401h-.605v1.401h-.565Zm.565-2.988v1.121h.58c.485,0,.746-.195.746-.561s-.261-.561-.746-.561h-.58Z" fill="#fff" stroke-width="0"/>
        <path d="m76.939,32.127l1.141-3.453h1.076l1.136,3.453h-.575l-.32-.971h-1.557l-.32.971h-.58Zm1.051-1.441h1.251l-.626-1.902-.625,1.902Z" fill="#fff" stroke-width="0"/>
        <path d="m83.481,31.662v.465h-2.502v-.465l1.762-2.522h-1.717v-.465h2.407v.465l-1.762,2.522h1.812Z" fill="#fff" stroke-width="0"/>
        <path d="m84.164,32.127l1.141-3.453h1.076l1.136,3.453h-.575l-.32-.971h-1.557l-.32.971h-.58Zm1.051-1.441h1.251l-.625-1.902-.626,1.902Z" fill="#fff" stroke-width="0"/>
      </g>
      <circle cx="30.806" cy="30.806" r="19.367" fill="none" stroke="#dcdcdc" stroke-linecap="square" stroke-linejoin="bevel" stroke-width=".75"/>
      <rect width="100.214" height="61.613" fill="none" stroke-width="0"/>
    </g>
  </g>
</svg>