<?xml version="1.0" encoding="UTF-8" standalone="no"?>
<svg
   width="115.817"
   height="115.817"
   viewBox="0 0 115.817 115.817"
   version="1.1"
   id="svg64"
   sodipodi:docname="Asset 5.svg"
   inkscape:export-filename="../2d62b20b/5.png"
   inkscape:export-xdpi="424.39365"
   inkscape:export-ydpi="424.39365"
   inkscape:version="1.2.2 (732a01da63, 2022-12-09, custom)"
   xmlns:inkscape="http://www.inkscape.org/namespaces/inkscape"
   xmlns:sodipodi="http://sodipodi.sourceforge.net/DTD/sodipodi-0.dtd"
   xmlns="http://www.w3.org/2000/svg"
   xmlns:svg="http://www.w3.org/2000/svg">
  <sodipodi:namedview
     id="namedview66"
     pagecolor="#ffffff"
     bordercolor="#000000"
     borderopacity="0.25"
     inkscape:showpageshadow="2"
     inkscape:pageopacity="0.0"
     inkscape:pagecheckerboard="0"
     inkscape:deskcolor="#d1d1d1"
     showgrid="false"
     inkscape:zoom="19.624172"
     inkscape:cx="80.054333"
     inkscape:cy="60.563064"
     inkscape:window-width="1600"
     inkscape:window-height="829"
     inkscape:window-x="0"
     inkscape:window-y="0"
     inkscape:window-maximized="1"
     inkscape:current-layer="g56" />
  <defs
     id="defs28">
    <clipPath
       id="a">
      <circle
         cx="57.908"
         cy="56.62"
         r="36.46"
         fill="none"
         id="circle25" />
    </clipPath>
  </defs>
  <title
     id="title30">Asset 5</title>
  <g
     id="g62">
    <circle
       cx="57.908"
       cy="56.62"
       r="38.733"
       fill="none"
       stroke="#232323"
       stroke-linecap="square"
       stroke-linejoin="bevel"
       stroke-width="1.1"
       id="circle32" />
    <g
       clip-path="url(#a)"
       id="g58">
      <g
         id="g56">
        <path
           d="M22.927,59.262v-6.9h2.358c1.73,0,2.808.78,2.808,2.109s-1.078,2.118-2.808,2.118H24.056v2.669ZM24.056,53.3v2.37H25.4c.969,0,1.518-.43,1.518-1.19S26.365,53.3,25.4,53.3Z"
           id="path34" />
        <path
           d="M32.576,59.362a2.783,2.783,0,0,1-2.928-2.528h1.168a1.731,1.731,0,0,0,1.769,1.6c.879,0,1.53-.38,1.53-1.019,0-.56-.42-.861-1.309-1.07l-1-.23c-1.35-.32-2.019-.949-2.019-1.909,0-1.16,1.14-1.939,2.529-1.939,1.76,0,2.658.959,2.779,2.149h-1.17a1.432,1.432,0,0,0-1.59-1.219c-.789,0-1.359.34-1.359.93,0,.469.35.689,1.369.928l1,.24c1.3.3,1.949.98,1.949,2.069C35.294,58.512,34.175,59.362,32.576,59.362Z"
           id="path36" />
        <path
           d="M37.406,59.262v-6.9h4.107V53.3H38.535v1.959h2.888v.93H38.535v2.149h3.058v.929Z"
           id="path38" />
        <path
           d="M43.775,59.262v-6.9h2.189c1.729,0,2.768.74,2.768,2.049a1.873,1.873,0,0,1-1.469,1.869l1.58,2.978H47.6l-1.488-2.8H44.9v2.8ZM44.9,53.3v2.24h1.16c.969,0,1.488-.391,1.488-1.12s-.519-1.12-1.488-1.12Z"
           id="path40" />
        <path
           d="M52.365,59.262l-2.28-6.9h1.161l2.189,6.676,2.2-6.676h1.151l-2.27,6.9Z"
           id="path42" />
        <path
           d="M57.421,59.262l2.28-6.9h2.148l2.268,6.9H62.968l-.64-1.938H59.22l-.64,1.938Zm2.1-2.878h2.5l-1.25-3.8Z"
           id="path44" />
        <path
           d="M66.808,59.262V53.3H64.57v-.929h5.6V53.3H67.939v5.967Z"
           id="path46" />
        <path
           d="m 74.621,59.362 c -3.232089,0.266917 -5.10816,-3.573855 -2.911707,-5.959229 2.196453,-2.385373 6.178636,-0.831863 6.178707,2.411229 0.126082,1.899346 -1.363722,3.51729 -3.267,3.548 z m 0,-0.929 c 1.228,0 2.087,-1.04 2.087,-2.619 0,-1.579 -0.859,-2.614 -2.087,-2.614 -1.228,0 -2.49284,0.870554 -2.49284,2.459554 0,1.589 1.27184,2.773446 2.49284,2.773446 z"
           id="path48"
           sodipodi:nodetypes="csccsssss" />
        <path
           d="M80.025,59.262v-6.9h2.189c1.729,0,2.768.74,2.768,2.049a1.873,1.873,0,0,1-1.469,1.869l1.58,2.978h-1.24l-1.488-2.8H81.154v2.8ZM81.154,53.3v2.24h1.16c.969,0,1.488-.391,1.488-1.12s-.519-1.12-1.488-1.12Z"
           id="path50" />
        <path
           d="M87.164,59.262v-6.9h1.128v6.9Z"
           id="path52" />
        <path
           d="M90.08,59.262v-.929h.929c.651,0,.789-.24.789-.86V52.366h1.131v5.258c0,1.319-.51,1.638-1.7,1.638Z"
           id="path54" />
      </g>
    </g>
    <rect
       width="115.817"
       height="115.817"
       fill="none"
       id="rect60" />
  </g>
</svg>
