<svg xmlns="http://www.w3.org/2000/svg" width="242.201" height="115.817" viewBox="0 0 242.201 115.817">
  <title>Asset 10</title>
  <g>
    <g>
      <path d="M22.926,60.551v-6.9h2.359c1.729,0,2.808.781,2.808,2.11s-1.079,2.118-2.808,2.118h-1.23v2.669Zm1.129-5.967v2.369H25.4c.969,0,1.519-.43,1.519-1.189s-.55-1.18-1.519-1.18Z" fill="#fff"/>
      <path d="M32.576,60.65a2.785,2.785,0,0,1-2.929-2.528h1.169a1.731,1.731,0,0,0,1.77,1.6c.879,0,1.529-.38,1.529-1.02,0-.559-.42-.86-1.31-1.069l-1-.231c-1.349-.319-2.019-.949-2.019-1.909,0-1.159,1.139-1.938,2.528-1.938,1.76,0,2.659.959,2.779,2.148H33.925a1.433,1.433,0,0,0-1.589-1.219c-.79,0-1.36.34-1.36.93,0,.47.35.689,1.369.929l1,.24c1.3.3,1.949.979,1.949,2.068C35.294,59.8,34.175,60.65,32.576,60.65Z" fill="#fff"/>
      <path d="M37.405,60.551v-6.9h4.107v.93H38.534v1.959h2.889v.93H38.534v2.148h3.059v.93Z" fill="#fff"/>
      <path d="M43.775,60.551v-6.9h2.189c1.729,0,2.768.74,2.768,2.049a1.872,1.872,0,0,1-1.47,1.869l1.581,2.979H47.6l-1.488-2.8H44.9v2.8ZM44.9,54.584v2.239h1.159c.97,0,1.489-.39,1.489-1.12s-.519-1.119-1.489-1.119Z" fill="#fff"/>
      <path d="M52.365,60.551l-2.279-6.9h1.159l2.189,6.677,2.2-6.677h1.149l-2.269,6.9Z" fill="#fff"/>
      <path d="M57.421,60.551l2.279-6.9h2.148l2.269,6.9H62.968l-.64-1.939H59.219l-.639,1.939Zm2.1-2.878h2.5l-1.249-3.8Z" fill="#fff"/>
      <path d="M66.808,60.551V54.584H64.57v-.93h5.6v.93H67.938v5.967Z" fill="#fff"/>
      <path d="M74.62,60.65A3.56,3.56,0,1,1,77.887,57.1,3.327,3.327,0,0,1,74.62,60.65Zm0-.928c1.229,0,2.089-1.04,2.089-2.62s-.86-2.618-2.089-2.618-2.079,1.03-2.079,2.618S73.4,59.722,74.62,59.722Z" fill="#fff"/>
      <path d="M80.025,60.551v-6.9h2.189c1.729,0,2.768.74,2.768,2.049a1.872,1.872,0,0,1-1.47,1.869l1.581,2.979H83.852l-1.488-2.8h-1.21v2.8Zm1.129-5.967v2.239h1.159c.97,0,1.489-.39,1.489-1.12s-.519-1.119-1.489-1.119Z" fill="#fff"/>
      <path d="M87.164,60.551v-6.9h1.129v6.9Z" fill="#fff"/>
      <path d="M90.08,60.551v-.93h.93c.649,0,.789-.239.789-.859V53.654h1.129v5.258c0,1.319-.509,1.639-1.7,1.639Z" fill="#fff"/>
    </g>
    <g>
      <path d="M100.959,60.551v-6.9h1.129v3.158l2.838-3.158h1.45l-2.969,3.3,3.269,3.6h-1.45l-3.138-3.458v3.458Z" fill="#fff"/>
      <path d="M108.366,60.551v-6.9h2.188c1.73,0,2.769.74,2.769,2.049a1.872,1.872,0,0,1-1.47,1.869l1.58,2.979h-1.24l-1.488-2.8H109.5v2.8Zm1.129-5.967v2.239h1.159c.97,0,1.489-.39,1.489-1.12s-.519-1.119-1.489-1.119Z" fill="#fff"/>
      <path d="M114.963,60.551l2.279-6.9h2.148l2.269,6.9H120.51l-.64-1.939h-3.109l-.639,1.939Zm2.1-2.878h2.5l-1.249-3.8Z" fill="#fff"/>
      <path d="M123.06,60.551v-.93h.93c.649,0,.789-.239.789-.859V53.654h1.13v5.258c0,1.319-.51,1.639-1.7,1.639Z" fill="#fff"/>
      <path d="M131.262,60.65A3.559,3.559,0,1,1,134.53,57.1,3.327,3.327,0,0,1,131.262,60.65Zm0-.928c1.23,0,2.089-1.04,2.089-2.62s-.859-2.618-2.089-2.618-2.079,1.03-2.079,2.618S130.043,59.722,131.262,59.722Z" fill="#fff"/>
      <path d="M136.669,60.551v-6.9H138.9c1.73,0,2.538.62,2.538,1.86a1.5,1.5,0,0,1-1.339,1.439v.029c1.12.09,1.669.68,1.669,1.59,0,1.249-.869,1.979-2.568,1.979Zm1.129-5.967v1.929h1.119c.929,0,1.34-.35,1.34-.969s-.34-.96-1.27-.96Zm0,2.858v2.179h1.419c1,0,1.37-.409,1.37-1.089s-.46-1.09-1.46-1.09Z" fill="#fff"/>
      <path d="M143.892,60.551v-6.9h2.189c1.729,0,2.768.74,2.768,2.049a1.872,1.872,0,0,1-1.469,1.869l1.58,2.979h-1.241l-1.488-2.8h-1.21v2.8Zm1.129-5.967v2.239h1.159c.97,0,1.49-.39,1.49-1.12s-.52-1.119-1.49-1.119Z" fill="#fff"/>
      <path d="M150.489,60.551l2.279-6.9h2.149l2.268,6.9h-1.149l-.64-1.939h-3.108l-.64,1.939Zm2.1-2.878h2.5l-1.249-3.8Z" fill="#fff"/>
      <path d="M163.7,59.621v.93h-5v-.93l3.517-5.037H158.8v-.93H163.6v.93l-3.518,5.037Z" fill="#fff"/>
      <path d="M165.213,60.551l2.279-6.9h2.148l2.269,6.9H170.76l-.64-1.939h-3.109l-.639,1.939Zm2.1-2.878h2.5l-1.249-3.8Z" fill="#fff"/>
    </g>
    <g>
      <path d="M176.83,60.551v-6.9h2.228c1.73,0,2.538.62,2.538,1.86a1.5,1.5,0,0,1-1.338,1.439v.029c1.119.09,1.668.68,1.668,1.59,0,1.249-.869,1.979-2.568,1.979Zm1.129-5.967v1.929h1.119c.93,0,1.34-.35,1.34-.969s-.34-.96-1.27-.96Zm0,2.858v2.179h1.419c1,0,1.37-.409,1.37-1.089s-.46-1.09-1.46-1.09Z" fill="#fff"/>
      <path d="M183.245,60.551l2.279-6.9h2.149l2.268,6.9h-1.149l-.64-1.939h-3.108l-.64,1.939Zm2.1-2.878h2.5l-1.25-3.8Z" fill="#fff"/>
      <path d="M191.709,60.551v-6.9h2.238l2.449,6.677V53.654h1.129v6.9h-2.238l-2.449-6.677v6.677Z" fill="#fff"/>
      <path d="M200.048,60.551v-6.9h1.128v6.9Z" fill="#fff"/>
      <path d="M202.964,60.551v-.93h.929c.65,0,.789-.239.789-.859V53.654h1.13v5.258c0,1.319-.51,1.639-1.7,1.639Z" fill="#fff"/>
      <path d="M208.3,60.551v-6.9h4.107v.93h-2.979v1.959h2.889v.93h-2.889v2.148h3.059v.93Z" fill="#fff"/>
    </g>
    <circle cx="57.908" cy="57.908" r="38.733" fill="none" stroke="#dcdcdc" stroke-linecap="square" stroke-linejoin="bevel" stroke-width="1.1"/>
    <rect width="242.201" height="115.817" fill="none"/>
  </g>
</svg>
