<svg xmlns="http://www.w3.org/2000/svg" xmlns:xlink="http://www.w3.org/1999/xlink" width="115.817" height="115.817" viewBox="0 0 115.817 115.817">
  <defs>
    <clipPath id="a">
      <circle cx="57.908" cy="56.62" r="36.46" fill="none"/>
    </clipPath>
  </defs>
  <title>Asset 5</title>
  <g>
    <circle cx="57.908" cy="56.62" r="38.733" fill="none" stroke="#232323" stroke-linecap="square" stroke-linejoin="bevel" stroke-width="1.1"/>
    <g clip-path="url(#a)">
      <g>
        <path d="M22.927,59.262v-6.9h2.358c1.73,0,2.808.78,2.808,2.109s-1.078,2.118-2.808,2.118H24.056v2.669ZM24.056,53.3v2.37H25.4c.969,0,1.518-.43,1.518-1.19S26.365,53.3,25.4,53.3Z"/>
        <path d="M32.576,59.362a2.783,2.783,0,0,1-2.928-2.528h1.168a1.731,1.731,0,0,0,1.769,1.6c.879,0,1.53-.38,1.53-1.019,0-.56-.42-.861-1.309-1.07l-1-.23c-1.35-.32-2.019-.949-2.019-1.909,0-1.16,1.14-1.939,2.529-1.939,1.76,0,2.658.959,2.779,2.149h-1.17a1.432,1.432,0,0,0-1.59-1.219c-.789,0-1.359.34-1.359.93,0,.469.35.689,1.369.928l1,.24c1.3.3,1.949.98,1.949,2.069C35.294,58.512,34.175,59.362,32.576,59.362Z"/>
        <path d="M37.406,59.262v-6.9h4.107V53.3H38.535v1.959h2.888v.93H38.535v2.149h3.058v.929Z"/>
        <path d="M43.775,59.262v-6.9h2.189c1.729,0,2.768.74,2.768,2.049a1.873,1.873,0,0,1-1.469,1.869l1.58,2.978H47.6l-1.488-2.8H44.9v2.8ZM44.9,53.3v2.24h1.16c.969,0,1.488-.391,1.488-1.12s-.519-1.12-1.488-1.12Z"/>
        <path d="M52.365,59.262l-2.28-6.9h1.161l2.189,6.676,2.2-6.676h1.151l-2.27,6.9Z"/>
        <path d="M57.421,59.262l2.28-6.9h2.148l2.268,6.9H62.968l-.64-1.938H59.22l-.64,1.938Zm2.1-2.878h2.5l-1.25-3.8Z"/>
        <path d="M66.808,59.262V53.3H64.57v-.929h5.6V53.3H67.939v5.967Z"/>
        <path d="M74.621,59.362a3.56,3.56,0,1,1,3.267-3.548A3.328,3.328,0,0,1,74.621,59.362Zm0-.929c1.228,0,2.087-1.04,2.087-2.619S75.849,53.2,74.621,53.2s-2.081,1.029-2.081,2.618S73.4,58.433,74.621,58.433Z"/>
        <path d="M80.025,59.262v-6.9h2.189c1.729,0,2.768.74,2.768,2.049a1.873,1.873,0,0,1-1.469,1.869l1.58,2.978h-1.24l-1.488-2.8H81.154v2.8ZM81.154,53.3v2.24h1.16c.969,0,1.488-.391,1.488-1.12s-.519-1.12-1.488-1.12Z"/>
        <path d="M87.164,59.262v-6.9h1.128v6.9Z"/>
        <path d="M90.08,59.262v-.929h.929c.651,0,.789-.24.789-.86V52.366h1.131v5.258c0,1.319-.51,1.638-1.7,1.638Z"/>
      </g>
    </g>
    <rect width="115.817" height="115.817" fill="none"/>
  </g>
</svg>
