<?xml version="1.0" encoding="UTF-8" standalone="no"?>
<svg
   version="1.1"
   width="96"
   height="96"
   viewbox="0 0 96 96"
   id="svg1186"
   sodipodi:docname="lambda.svg"
   inkscape:export-filename="../1c1f63b1/lambda.png"
   inkscape:export-xdpi="615.79999"
   inkscape:export-ydpi="615.79999"
   inkscape:version="1.2.2 (732a01da63, 2022-12-09, custom)"
   xmlns:inkscape="http://www.inkscape.org/namespaces/inkscape"
   xmlns:sodipodi="http://sodipodi.sourceforge.net/DTD/sodipodi-0.dtd"
   xmlns="http://www.w3.org/2000/svg"
   xmlns:svg="http://www.w3.org/2000/svg">
  <defs
     id="defs1190" />
  <sodipodi:namedview
     id="namedview1188"
     pagecolor="#ffffff"
     bordercolor="#000000"
     borderopacity="0.25"
     inkscape:showpageshadow="2"
     inkscape:pageopacity="0.0"
     inkscape:pagecheckerboard="0"
     inkscape:deskcolor="#d1d1d1"
     showgrid="false"
     inkscape:zoom="6.15625"
     inkscape:cx="47.918782"
     inkscape:cy="48.162437"
     inkscape:window-width="1600"
     inkscape:window-height="829"
     inkscape:window-x="0"
     inkscape:window-y="0"
     inkscape:window-maximized="1"
     inkscape:current-layer="svg1186" />
  <rect
     x="0"
     y="0"
     width="96"
     height="96"
     fill="#FFFFFF"
     id="rect1180" />
  <g
     transform="translate(33.5386669921875, 64.36800000000001)"
     id="g1184">
    <path
       d="M7.97-32.3L7.97-32.3Q7.97-32.93 8.78-33.31L8.78-33.31 9.7-33.31Q14.02-33.17 15.17-30.91L15.17-30.91Q15.22-30.82 20.16-17.06 25.1-3.31 25.15-3.22L25.15-3.22Q25.92-0.91 26.5-0.29L26.5-0.29Q26.88 0.1 26.4 0.53L26.4 0.53 23.14 0.53Q21.94-0.14 21.5-0.96L21.5-0.96Q16.99-13.2 16.99-13.3L16.99-13.3 14.11-9.98Q11.23-6.67 8.35-3.36L8.35-3.36 5.42 0Q4.85 0.58 3.98 0.58L3.98 0.58Q2.26 0.58 2.26-0.96L2.26-0.96Q2.26-1.63 2.64-2.21L2.64-2.21Q2.88-2.54 6.26-5.83 9.65-9.12 12.96-12.29L12.96-12.29 16.22-15.46Q16.22-15.5 13.82-22.18 11.42-28.85 11.23-29.38L11.23-29.38Q10.27-31.54 8.78-31.54L8.78-31.54Q8.45-31.54 8.21-31.75 7.97-31.97 7.97-32.3Z"
       fill="#404040"
       id="path1182" />
  </g>
</svg>
