<?xml version="1.0" encoding="UTF-8"?>
<svg id="b" data-name="Layer 2" xmlns="http://www.w3.org/2000/svg" width="115.817" height="115.817" xmlns:xlink="http://www.w3.org/1999/xlink" viewBox="0 0 115.817 115.817">
  <defs>
    <clipPath id="d">
      <circle cx="57.908" cy="56.62" r="36.46" fill="none" stroke-width="0"/>
    </clipPath>
  </defs>
  <g id="c" data-name="Layer 1">
    <g>
      <circle cx="57.908" cy="56.62" r="38.733" fill="none" stroke="#dcdcdc" stroke-linecap="square" stroke-linejoin="bevel" stroke-width="1.1"/>
      <g clip-path="url(#d)">
        <g>
          <path d="m35.042,83.224l-4.877-4.877,1.668-1.668c1.223-1.223,2.537-1.434,3.477-.494.947.947.735,2.261-.488,3.484l-.869.869,1.888,1.887-.798.799Zm-3.422-5.018l1.676,1.675.947-.947c.686-.685.77-1.378.232-1.915s-1.223-.445-1.908.24l-.947.947Z" fill="#fff" stroke-width="0"/>
          <path d="m41.935,76.47c-1.293,1.294-2.898,1.09-3.858.284l.827-.827c.686.586,1.695.566,2.382-.12.621-.621.812-1.35.36-1.802-.396-.396-.905-.312-1.682.17l-.87.543c-1.18.729-2.099.757-2.777.078-.819-.82-.565-2.177.417-3.158,1.244-1.244,2.559-1.203,3.484-.446l-.827.827c-.644-.516-1.413-.311-1.985.262-.559.559-.721,1.201-.305,1.619.332.332.735.24,1.625-.312l.877-.537c1.131-.706,2.07-.685,2.84.086.813.812.623,2.204-.508,3.334Z" fill="#fff" stroke-width="0"/>
          <path d="m45.279,72.986l-4.876-4.877,2.904-2.904.656.658-2.105,2.105,1.385,1.385,2.043-2.042.657.657-2.042,2.043,1.52,1.52,2.162-2.163.657.657-2.961,2.961Z" fill="#fff" stroke-width="0"/>
          <path d="m49.784,68.482l-4.877-4.877,1.547-1.547c1.224-1.224,2.481-1.435,3.406-.51.658.658.742,1.49.283,2.361l3.223.988-.877.877-3.031-.926-.855.855,1.979,1.979-.798.799Zm-3.422-5.018l1.584,1.583.819-.819c.687-.686.776-1.33.261-1.846s-1.158-.424-1.844.262l-.82.82Z" fill="#fff" stroke-width="0"/>
          <path d="m55.857,62.408l-6.488-3.265.819-.819,6.27,3.172-3.166-6.275.812-.812,3.271,6.48-1.519,1.52Z" fill="#fff" stroke-width="0"/>
          <path d="m59.433,58.833l-3.266-6.487,1.52-1.52,6.48,3.271-.812.813-1.822-.919-2.198,2.198.918,1.823-.819.819Zm-.551-3.519l1.767-1.768-3.569-1.803,1.803,3.57Z" fill="#fff" stroke-width="0"/>
          <path d="m66.07,52.195l-4.22-4.219-1.582,1.582-.657-.657,3.958-3.958.656.658-1.575,1.575,4.22,4.22-.8.799Z" fill="#fff" stroke-width="0"/>
          <path d="m71.665,46.742c-1.372,1.371-3.429,1.194-4.82-.197s-1.569-3.449-.197-4.82c1.37-1.371,3.427-1.194,4.818.197s1.569,3.449.199,4.82Zm-.657-.657c.869-.869.741-2.212-.375-3.329-1.124-1.123-2.459-1.243-3.328-.374-.862.862-.743,2.198.381,3.321,1.116,1.117,2.46,1.244,3.322.382Z" fill="#fff" stroke-width="0"/>
          <path d="m75.416,42.849l-4.876-4.877,1.547-1.547c1.223-1.223,2.481-1.435,3.406-.51.658.658.742,1.491.282,2.361l3.224.988-.877.877-3.031-.926-.855.855,1.979,1.979-.798.799Zm-3.421-5.018l1.584,1.584.819-.82c.686-.686.776-1.33.261-1.846s-1.158-.424-1.844.262l-.82.82Z" fill="#fff" stroke-width="0"/>
          <path d="m80.464,37.801l-4.877-4.876.799-.799,4.877,4.877-.799.798Z" fill="#fff" stroke-width="0"/>
          <path d="m82.526,35.74l-.658-.658.658-.656c.459-.46.389-.729-.051-1.166l-3.611-3.611.799-.799,3.719,3.717c.932.934.798,1.52-.043,2.36l-.812.813Z" fill="#fff" stroke-width="0"/>
        </g>
      </g>
      <rect width="115.817" height="115.817" fill="none" stroke-width="0"/>
    </g>
  </g>
</svg>