<?xml version="1.0" encoding="UTF-8"?>
<svg id="b" data-name="Layer 2" xmlns="http://www.w3.org/2000/svg" width="115.817" height="115.817" xmlns:xlink="http://www.w3.org/1999/xlink" viewBox="0 0 115.817 115.817">
  <defs>
    <clipPath id="d">
      <circle cx="57.908" cy="56.62" r="36.46" fill="none" stroke-width="0"/>
    </clipPath>
  </defs>
  <g id="c" data-name="Layer 1">
    <g>
      <circle cx="57.908" cy="56.62" r="38.733" fill="none" stroke="#232323" stroke-linecap="square" stroke-linejoin="bevel" stroke-width="1.1"/>
      <g clip-path="url(#d)">
        <g>
          <path d="m31.301,33.753l4.876-4.877,1.667,1.668c1.224,1.223,1.435,2.537.495,3.477-.946.947-2.261.735-3.483-.488l-.869-.869-1.888,1.888-.798-.798Zm5.018-3.422l-1.676,1.676.947.947c.686.686,1.377.77,1.915.232.537-.537.445-1.223-.239-1.908l-.947-.947Z" stroke-width="0"/>
          <path d="m38.053,40.646c-1.293-1.293-1.088-2.898-.283-3.858l.826.827c-.586.686-.564,1.695.121,2.382.621.621,1.35.812,1.802.36.396-.396.312-.905-.169-1.682l-.544-.87c-.729-1.18-.757-2.099-.078-2.777.819-.819,2.177-.565,3.159.417,1.244,1.244,1.201,2.559.445,3.484l-.827-.827c.516-.644.311-1.413-.262-1.985-.559-.559-1.202-.721-1.618-.305-.332.332-.241.735.311,1.625l.537.877c.707,1.131.686,2.07-.084,2.84-.813.813-2.205.623-3.336-.508Z" stroke-width="0"/>
          <path d="m41.538,43.991l4.876-4.876,2.904,2.904-.656.656-2.106-2.105-1.386,1.385,2.043,2.043-.657.657-2.042-2.042-1.52,1.52,2.162,2.162-.657.657-2.961-2.961Z" stroke-width="0"/>
          <path d="m46.043,48.496l4.876-4.877,1.548,1.547c1.223,1.224,1.434,2.481.508,3.406-.656.658-1.49.742-2.359.283l-.99,3.223-.877-.877.928-3.031-.855-.855-1.979,1.979-.798-.798Zm5.018-3.422l-1.584,1.584.819.819c.687.687,1.329.776,1.845.261.517-.516.425-1.158-.262-1.844l-.818-.82Z" stroke-width="0"/>
          <path d="m52.116,54.569l3.265-6.488.82.819-3.174,6.27,6.275-3.166.813.812-6.481,3.271-1.519-1.519Z" stroke-width="0"/>
          <path d="m55.691,58.144l6.488-3.266,1.52,1.52-3.273,6.48-.812-.812.918-1.822-2.197-2.198-1.823.918-.819-.819Zm3.52-.551l1.767,1.767,1.803-3.569-3.569,1.803Z" stroke-width="0"/>
          <path d="m62.329,64.782l4.22-4.22-1.583-1.582.657-.657,3.957,3.958-.656.656-1.576-1.575-4.219,4.22-.8-.8Z" stroke-width="0"/>
          <path d="m67.783,70.376c-1.372-1.372-1.195-3.429.197-4.82,1.392-1.393,3.448-1.569,4.82-.197s1.193,3.427-.199,4.818c-1.392,1.393-3.448,1.569-4.818.199Zm.656-.657c.869.869,2.213.741,3.329-.375,1.124-1.124,1.243-2.459.374-3.328-.863-.862-2.197-.743-3.321.381-1.116,1.116-1.245,2.46-.382,3.322Z" stroke-width="0"/>
          <path d="m71.675,74.127l4.876-4.876,1.549,1.547c1.223,1.223,1.434,2.481.508,3.406-.656.658-1.49.742-2.36.282l-.989,3.224-.877-.877.927-3.031-.855-.855-1.979,1.979-.798-.798Zm5.018-3.421l-1.583,1.584.819.819c.686.686,1.329.776,1.845.261.517-.516.424-1.158-.262-1.844l-.819-.82Z" stroke-width="0"/>
          <path d="m76.723,79.175l4.877-4.877.798.799-4.876,4.877-.799-.799Z" stroke-width="0"/>
          <path d="m78.785,81.238l.656-.658.658.658c.459.459.727.389,1.166-.051l3.611-3.611.799.799-3.719,3.719c-.932.932-1.519.798-2.359-.043l-.812-.812Z" stroke-width="0"/>
        </g>
      </g>
      <rect width="115.817" height="115.817" fill="none" stroke-width="0"/>
    </g>
  </g>
</svg>