<?xml version="1.0" encoding="UTF-8"?>
<svg id="b" data-name="Layer 2" xmlns="http://www.w3.org/2000/svg" width="115.817" height="115.817" xmlns:xlink="http://www.w3.org/1999/xlink" viewBox="0 0 115.817 115.817">
  <defs>
    <clipPath id="d">
      <circle cx="57.908" cy="56.62" r="36.46" fill="none" stroke-width="0"/>
    </clipPath>
  </defs>
  <g id="c" data-name="Layer 1">
    <g>
      <circle cx="57.908" cy="56.62" r="38.733" fill="none" stroke="#dcdcdc" stroke-linecap="square" stroke-linejoin="bevel" stroke-width="1.1"/>
      <g clip-path="url(#d)">
        <g>
          <path d="m22.926,59.262v-6.896h2.358c1.729,0,2.809.78,2.809,2.109,0,1.339-1.079,2.118-2.809,2.118h-1.229v2.669h-1.129Zm1.129-5.967v2.369h1.34c.969,0,1.519-.43,1.519-1.189s-.55-1.18-1.519-1.18h-1.34Z" fill="#fff" stroke-width="0"/>
          <path d="m32.576,59.362c-1.829,0-2.819-1.279-2.929-2.528h1.169c.07.899.8,1.6,1.77,1.6.879,0,1.529-.38,1.529-1.02,0-.56-.42-.86-1.31-1.069l-.999-.23c-1.35-.319-2.02-.949-2.02-1.909,0-1.159,1.14-1.938,2.528-1.938,1.76,0,2.659.959,2.779,2.148h-1.17c-.09-.819-.779-1.219-1.589-1.219-.79,0-1.359.34-1.359.93,0,.47.35.689,1.369.929l1,.24c1.299.3,1.948.979,1.948,2.068,0,1.149-1.119,1.999-2.718,1.999Z" fill="#fff" stroke-width="0"/>
          <path d="m37.405,59.262v-6.896h4.107v.93h-2.979v1.959h2.889v.93h-2.889v2.148h3.059v.93h-4.188Z" fill="#fff" stroke-width="0"/>
          <path d="m43.775,59.262v-6.896h2.188c1.729,0,2.769.74,2.769,2.049,0,.93-.529,1.579-1.47,1.869l1.58,2.979h-1.24l-1.488-2.799h-1.21v2.799h-1.129Zm1.129-5.967v2.239h1.159c.97,0,1.489-.391,1.489-1.12s-.52-1.119-1.489-1.119h-1.159Z" fill="#fff" stroke-width="0"/>
          <path d="m52.365,59.262l-2.279-6.896h1.159l2.189,6.677,2.198-6.677h1.149l-2.269,6.896h-2.148Z" fill="#fff" stroke-width="0"/>
          <path d="m57.421,59.262l2.279-6.896h2.148l2.269,6.896h-1.149l-.64-1.938h-3.108l-.64,1.938h-1.159Zm2.099-2.878h2.499l-1.249-3.799-1.25,3.799Z" fill="#fff" stroke-width="0"/>
          <path d="m66.808,59.262v-5.967h-2.238v-.93h5.597v.93h-2.229v5.967h-1.13Z" fill="#fff" stroke-width="0"/>
          <path d="m74.62,59.362c-1.939,0-3.269-1.579-3.269-3.548s1.329-3.548,3.269-3.548,3.268,1.579,3.268,3.548-1.329,3.548-3.268,3.548Zm0-.929c1.229,0,2.089-1.04,2.089-2.619,0-1.589-.859-2.618-2.089-2.618-1.22,0-2.079,1.029-2.079,2.618,0,1.579.859,2.619,2.079,2.619Z" fill="#fff" stroke-width="0"/>
          <path d="m80.025,59.262v-6.896h2.188c1.729,0,2.769.74,2.769,2.049,0,.93-.529,1.579-1.47,1.869l1.58,2.979h-1.24l-1.488-2.799h-1.21v2.799h-1.129Zm1.129-5.967v2.239h1.159c.97,0,1.489-.391,1.489-1.12s-.52-1.119-1.489-1.119h-1.159Z" fill="#fff" stroke-width="0"/>
          <path d="m87.164,59.262v-6.896h1.129v6.896h-1.129Z" fill="#fff" stroke-width="0"/>
          <path d="m90.08,59.262v-.93h.93c.649,0,.789-.239.789-.859v-5.107h1.13v5.258c0,1.319-.51,1.639-1.699,1.639h-1.149Z" fill="#fff" stroke-width="0"/>
        </g>
      </g>
      <rect width="115.817" height="115.817" fill="none" stroke-width="0"/>
    </g>
  </g>
</svg>