<?xml version="1.0" encoding="UTF-8"?>
<svg id="b" data-name="Layer 2" xmlns="http://www.w3.org/2000/svg" width="115.817" height="115.817" xmlns:xlink="http://www.w3.org/1999/xlink" viewBox="0 0 115.817 115.817">
  <defs>
    <clipPath id="d">
      <circle cx="57.908" cy="56.62" r="36.46" fill="none" stroke-width="0"/>
    </clipPath>
  </defs>
  <g id="c" data-name="Layer 1">
    <g>
      <circle cx="57.908" cy="56.62" r="38.733" fill="none" stroke="#dcdcdc" stroke-linecap="square" stroke-linejoin="bevel" stroke-width="1.1"/>
      <g clip-path="url(#d)">
        <g>
          <path d="m31.3,33.753l4.877-4.877,1.668,1.668c1.223,1.223,1.434,2.537.494,3.477-.947.947-2.261.735-3.484-.488l-.869-.869-1.887,1.888-.799-.798Zm5.018-3.422l-1.675,1.676.947.947c.685.686,1.378.77,1.915.232s.445-1.223-.24-1.908l-.947-.947Z" fill="#fff" stroke-width="0"/>
          <path d="m38.054,40.646c-1.294-1.293-1.09-2.898-.284-3.858l.827.827c-.586.686-.566,1.695.12,2.382.621.621,1.35.812,1.802.36.396-.396.312-.905-.17-1.682l-.543-.87c-.729-1.18-.757-2.099-.078-2.777.82-.819,2.177-.565,3.158.417,1.244,1.244,1.203,2.559.446,3.484l-.827-.827c.516-.644.311-1.413-.262-1.985-.559-.559-1.201-.721-1.619-.305-.332.332-.24.735.312,1.625l.537.877c.706,1.131.685,2.07-.086,2.84-.812.813-2.204.623-3.334-.508Z" fill="#fff" stroke-width="0"/>
          <path d="m41.538,43.991l4.877-4.876,2.904,2.904-.658.656-2.105-2.105-1.385,1.385,2.042,2.043-.657.657-2.043-2.042-1.52,1.52,2.163,2.162-.657.657-2.961-2.961Z" fill="#fff" stroke-width="0"/>
          <path d="m46.042,48.496l4.877-4.877,1.547,1.547c1.224,1.224,1.435,2.481.51,3.406-.658.658-1.49.742-2.361.283l-.988,3.223-.877-.877.926-3.031-.855-.855-1.979,1.979-.799-.798Zm5.018-3.422l-1.583,1.584.819.819c.686.687,1.33.776,1.846.261s.424-1.158-.262-1.844l-.82-.82Z" fill="#fff" stroke-width="0"/>
          <path d="m52.116,54.569l3.265-6.488.819.819-3.172,6.27,6.275-3.166.812.812-6.48,3.271-1.52-1.519Z" fill="#fff" stroke-width="0"/>
          <path d="m55.692,58.144l6.487-3.266,1.52,1.52-3.271,6.48-.813-.812.919-1.822-2.198-2.198-1.823.918-.819-.819Zm3.519-.551l1.768,1.767,1.803-3.569-3.57,1.803Z" fill="#fff" stroke-width="0"/>
          <path d="m62.329,64.782l4.219-4.22-1.582-1.582.657-.657,3.958,3.958-.658.656-1.575-1.575-4.22,4.22-.799-.8Z" fill="#fff" stroke-width="0"/>
          <path d="m67.782,70.376c-1.371-1.372-1.194-3.429.197-4.82s3.449-1.569,4.82-.197c1.371,1.37,1.194,3.427-.197,4.818s-3.449,1.569-4.82.199Zm.657-.657c.869.869,2.212.741,3.329-.375,1.123-1.124,1.243-2.459.374-3.328-.862-.862-2.198-.743-3.321.381-1.117,1.116-1.244,2.46-.382,3.322Z" fill="#fff" stroke-width="0"/>
          <path d="m71.675,74.127l4.877-4.876,1.547,1.547c1.223,1.223,1.435,2.481.51,3.406-.658.658-1.491.742-2.361.282l-.988,3.224-.877-.877.926-3.031-.855-.855-1.979,1.979-.799-.798Zm5.018-3.421l-1.584,1.584.82.819c.686.686,1.33.776,1.846.261s.424-1.158-.262-1.844l-.82-.82Z" fill="#fff" stroke-width="0"/>
          <path d="m76.723,79.175l4.876-4.877.799.799-4.877,4.877-.798-.799Z" fill="#fff" stroke-width="0"/>
          <path d="m78.784,81.238l.658-.658.656.658c.46.459.729.389,1.166-.051l3.611-3.611.799.799-3.717,3.719c-.934.932-1.52.798-2.36-.043l-.813-.812Z" fill="#fff" stroke-width="0"/>
        </g>
      </g>
      <rect width="115.817" height="115.817" fill="none" stroke-width="0"/>
    </g>
  </g>
</svg>