<svg width="1440" height="958" viewBox="0 0 1440 958" fill="none" xmlns="http://www.w3.org/2000/svg">
<line x1="1" y1="767.5" x2="1441" y2="767.5" stroke="#7E7E77"/>
<line x1="1" y1="673.5" x2="1441" y2="673.5" stroke="#7E7E77"/>
<line x1="1" y1="577.5" x2="1441" y2="577.5" stroke="#7E7E77"/>
<line x1="1" y1="481.5" x2="1441" y2="481.5" stroke="#7E7E77"/>
<line x1="1" y1="385.5" x2="1441" y2="385.5" stroke="#7E7E77"/>
<line x1="1" y1="289.5" x2="1441" y2="289.5" stroke="#7E7E77"/>
<line x1="1" y1="193.5" x2="1441" y2="193.5" stroke="#7E7E77"/>
<line x1="1" y1="97.5" x2="1441" y2="97.5001" stroke="#7E7E77"/>
<line x1="1" y1="860.5" x2="1441" y2="860.5" stroke="#7E7E77"/>
<line x1="1" y1="1" x2="1441" y2="1.00013" stroke="#18AA00" stroke-width="2"/>
<line x1="1" y1="956" x2="1441" y2="956" stroke="#18AA00" stroke-width="2"/>
<line x1="287.369" y1="4.60887e-08" x2="287.369" y2="958" stroke="#7E7E77"/>
<line x1="95.6191" y1="4.60887e-08" x2="95.6189" y2="958" stroke="#7E7E77"/>
<line x1="381.734" y1="4.60887e-08" x2="381.734" y2="958" stroke="#7E7E77"/>
<line x1="189.988" y1="4.54371e-08" x2="189.988" y2="958" stroke="#7E7E77"/>
<line x1="0.246094" y1="4.60887e-08" x2="0.245899" y2="958" stroke="#7E7E77"/>
<line x1="479.115" y1="4.60887e-08" x2="479.115" y2="958" stroke="#7E7E77"/>
<line x1="575.49" y1="4.60887e-08" x2="575.49" y2="958" stroke="#7E7E77"/>
<line x1="1058.38" y1="4.54371e-08" x2="1058.37" y2="958" stroke="#7E7E77"/>
<line x1="1152.74" y1="4.54371e-08" x2="1152.74" y2="958" stroke="#7E7E77"/>
<line x1="1250.12" y1="4.54371e-08" x2="1250.12" y2="958" stroke="#7E7E77"/>
<line x1="1346.5" y1="4.54371e-08" x2="1346.5" y2="958" stroke="#7E7E77"/>
<line x1="672.871" y1="4.60887e-08" x2="672.871" y2="958" stroke="#7E7E77"/>
<line x1="769.246" y1="4.60887e-08" x2="769.246" y2="958" stroke="#7E7E77"/>
<line x1="866.629" y1="4.60887e-08" x2="866.629" y2="958" stroke="#7E7E77"/>
<line x1="963.002" y1="4.60887e-08" x2="963.002" y2="958" stroke="#7E7E77"/>
</svg>
