<svg width="1440" height="767" viewBox="0 0 1440 767" fill="none" xmlns="http://www.w3.org/2000/svg">
<line x1="478.369" y1="4.54371e-08" x2="478.369" y2="767" stroke="#7E7E77"/>
<line x1="286.619" y1="4.54371e-08" x2="286.619" y2="767" stroke="#7E7E77"/>
<line x1="572.734" y1="4.54371e-08" x2="572.734" y2="767" stroke="#7E7E77"/>
<line x1="380.988" y1="4.54371e-08" x2="380.988" y2="767" stroke="#7E7E77"/>
<line x1="191.246" y1="4.54371e-08" x2="191.246" y2="767" stroke="#7E7E77"/>
<line x1="93.8691" y1="4.54371e-08" x2="93.869" y2="767" stroke="#7E7E77"/>
<line x1="670.115" y1="4.54371e-08" x2="670.115" y2="767" stroke="#7E7E77"/>
<line x1="766.49" y1="4.54371e-08" x2="766.49" y2="767" stroke="#7E7E77"/>
<line x1="1249.38" y1="4.54371e-08" x2="1249.37" y2="767" stroke="#7E7E77"/>
<line x1="1343.74" y1="4.54371e-08" x2="1343.74" y2="767" stroke="#7E7E77"/>
<line x1="863.871" y1="4.54371e-08" x2="863.871" y2="767" stroke="#7E7E77"/>
<line x1="960.246" y1="4.54371e-08" x2="960.246" y2="767" stroke="#7E7E77"/>
<line x1="1057.63" y1="4.54371e-08" x2="1057.63" y2="767" stroke="#7E7E77"/>
<line x1="1154" y1="4.54371e-08" x2="1154" y2="767" stroke="#7E7E77"/>
</svg>
